<?xml version="1.0" standalone="no"?><!DOCTYPE svg PUBLIC "-//W3C//DTD SVG 1.1//EN" "http://www.w3.org/Graphics/SVG/1.1/DTD/svg11.dtd"><svg height="1024" legacy-metrics="false" node-id="1" sillyvg="true" template-height="1024" template-width="1024" version="1.1" viewBox="0 0 1024 1024" width="1024" xmlns="http://www.w3.org/2000/svg" xmlns:xlink="http://www.w3.org/1999/xlink"><defs node-id="152"></defs><g node-id="338"><path d="M 853.00 789.55 L 858.51 775.03 L 866.60 760.35 L 874.60 749.15 L 156.60 740.75 L 160.20 869.15 L 878.20 869.15 L 864.35 854.93 L 855.34 840.23 L 850.50 824.75 L 849.63 808.05 L 853.00 789.55 Z" fill="#e7e5e5" fill-rule="nonzero" group-id="1" node-id="156" stroke-linecap="butt" stroke-width="8" target-height="128.3999" target-width="721.6001" target-x="156.59985" target-y="740.75"></path></g><g node-id="339"><path d="M 863.00 763.55 L 868.31 755.75 L 875.80 748.75 L 166.20 734.75 L 156.60 820.35 L 174.81 811.00 L 201.95 801.36 L 240.63 791.70 L 293.80 782.35 L 369.20 773.18 L 461.14 766.75 L 571.98 763.71 L 704.25 764.79 L 860.60 770.75 L 863.00 763.55 Z" fill="#cececd" fill-rule="nonzero" group-id="2" node-id="161" stroke-linecap="butt" stroke-width="8" target-height="85.6001" target-width="719.19995" target-x="156.59985" target-y="734.75"></path></g><g node-id="340"><path d="M 889.00 748.75 L 889.00 714.75 L 185.40 714.75 L 172.37 715.92 L 161.73 719.18 L 153.00 724.35 L 151.40 725.95 L 151.00 725.95 L 150.20 726.75 L 136.96 741.55 L 127.04 757.61 L 120.20 775.15 L 116.87 793.82 L 117.40 812.58 L 121.89 831.82 L 130.73 851.90 L 144.60 873.15 L 151.57 881.35 L 160.39 887.26 L 171.46 891.00 L 185.40 892.35 L 889.00 892.35 L 889.00 858.35 L 192.60 858.35 L 186.23 858.17 L 179.40 855.95 L 172.27 850.54 L 167.85 842.48 L 166.20 830.75 L 166.20 775.95 L 167.83 764.49 L 172.24 756.54 L 179.40 751.15 L 192.60 748.75 L 889.00 748.75 Z" fill="#ffc23a" fill-rule="nonzero" group-id="3" node-id="166" stroke-linecap="butt" stroke-width="8" target-height="177.6001" target-width="772.1328" target-x="116.86719" target-y="714.75"></path></g><g node-id="341"><path d="M 313.80 748.75 L 313.80 714.75 L 185.40 714.75 L 172.37 715.92 L 161.73 719.18 L 153.00 724.35 L 151.40 725.95 L 151.00 725.95 L 150.20 726.75 L 136.96 741.55 L 127.04 757.61 L 120.20 775.15 L 116.87 793.82 L 117.40 812.58 L 121.89 831.82 L 130.73 851.90 L 144.60 873.15 L 151.57 881.35 L 160.39 887.26 L 171.46 891.00 L 185.40 892.35 L 313.80 892.35 L 313.80 858.35 L 192.60 858.35 L 186.23 858.17 L 179.40 855.95 L 172.27 850.54 L 167.85 842.48 L 166.20 830.75 L 166.20 775.95 L 167.83 764.49 L 172.24 756.54 L 179.40 751.15 L 192.60 748.75 L 313.80 748.75 Z" fill="#f9a431" fill-rule="nonzero" group-id="4" node-id="171" stroke-linecap="butt" stroke-width="8" target-height="177.6001" target-width="196.93262" target-x="116.86719" target-y="714.75"></path></g><g node-id="342"><path d="M 362.60 803.55 L 343.00 803.95 L 361.40 820.75 L 371.28 836.73 L 376.84 854.03 L 378.20 873.15 L 406.60 840.75 L 445.80 863.95 L 441.84 852.29 L 435.80 839.15 L 424.84 822.83 L 413.56 812.31 L 401.80 806.35 L 384.61 804.31 L 362.60 803.55 Z" fill="#ea5645" fill-rule="nonzero" group-id="5" node-id="176" stroke-linecap="butt" stroke-width="8" target-height="69.59985" target-width="102.799805" target-x="343" target-y="803.55005"></path></g><g node-id="343"><path d="M 450.60 193.15 L 449.79 187.83 L 447.40 183.15 L 443.82 180.11 L 439.80 179.15 L 337.00 179.15 L 332.63 180.13 L 329.00 183.15 L 326.61 187.83 L 325.80 193.15 L 325.80 702.35 L 326.62 707.60 L 329.00 711.95 L 332.63 714.97 L 337.00 715.95 L 439.80 715.95 L 443.82 714.99 L 447.40 711.95 L 449.78 707.61 L 450.60 702.35 L 450.60 193.15 Z" fill="#22b1b6" fill-rule="nonzero" group-id="6" node-id="181" stroke-linecap="butt" stroke-width="8" target-height="536.80005" target-width="124.80005" target-x="325.7998" target-y="179.1499"></path></g><g node-id="344"><path d="M 575.40 256.75 L 574.60 252.25 L 572.20 248.35 L 568.65 245.63 L 564.60 244.75 L 461.80 244.75 L 457.68 245.62 L 453.80 248.35 L 451.40 252.25 L 450.60 256.75 L 450.60 703.95 L 451.40 708.45 L 453.80 712.35 L 457.68 715.08 L 461.80 715.95 L 564.60 715.95 L 568.65 715.07 L 572.20 712.35 L 574.60 708.45 L 575.40 703.95 L 575.40 256.75 Z" fill="#ea5645" fill-rule="nonzero" group-id="7" node-id="186" stroke-linecap="butt" stroke-width="8" target-height="471.19995" target-width="124.80005" target-x="450.59985" target-y="244.75"></path></g><g node-id="345"><path d="M 473.80 244.75 L 458.20 244.75 L 455.66 245.54 L 453.00 248.35 L 451.22 252.19 L 450.60 256.75 L 450.60 703.95 L 451.22 708.51 L 453.00 712.35 L 455.66 715.16 L 458.20 715.95 L 473.80 715.95 L 473.80 244.75 Z" fill="#d13431" fill-rule="nonzero" group-id="8" node-id="191" stroke-linecap="butt" stroke-width="8" target-height="471.19995" target-width="23.199951" target-x="450.59985" target-y="244.75"></path></g><g node-id="346"><path d="M 575.40 281.15 L 450.60 281.15 L 450.60 510.75 L 575.40 510.75 L 575.40 281.15 Z" fill="#63a343" fill-rule="nonzero" group-id="9" node-id="196" stroke-linecap="butt" stroke-width="8" target-height="229.6001" target-width="124.80005" target-x="450.59985" target-y="281.1499"></path></g><g node-id="347"><path d="M 473.80 281.15 L 450.60 281.15 L 450.60 509.95 L 473.80 509.95 L 473.80 281.15 Z" fill="#4f823c" fill-rule="nonzero" group-id="10" node-id="201" stroke-linecap="butt" stroke-width="8" target-height="228.80005" target-width="23.199951" target-x="450.59985" target-y="281.1499"></path></g><g node-id="348"><path d="M 365.00 178.35 L 338.60 178.35 L 333.75 179.33 L 329.40 182.35 L 326.70 187.06 L 325.80 192.35 L 325.80 702.35 L 326.71 707.57 L 329.40 711.95 L 333.75 714.97 L 338.60 715.95 L 365.00 715.95 L 365.00 178.35 Z" fill="#179998" fill-rule="nonzero" group-id="11" node-id="206" stroke-linecap="butt" stroke-width="8" target-height="537.59985" target-width="39.200195" target-x="325.7998" target-y="178.3501"></path></g><g node-id="349"><path d="M 450.60 413.15 L 450.60 299.55 L 325.80 299.55 L 325.80 413.15 L 450.60 413.15 Z" fill="#ffc23a" fill-rule="nonzero" group-id="12" node-id="211" stroke-linecap="butt" stroke-width="8" target-height="113.59985" target-width="124.80005" target-x="325.7998" target-y="299.55005"></path></g><g node-id="350"><path d="M 450.60 552.35 L 450.60 536.35 L 325.80 536.35 L 325.80 552.35 L 450.60 552.35 Z" fill="#ffc23a" fill-rule="nonzero" group-id="13" node-id="216" stroke-linecap="butt" stroke-width="8" target-height="16" target-width="124.80005" target-x="325.7998" target-y="536.3501"></path></g><g node-id="351"><path d="M 365.00 413.15 L 365.00 299.55 L 325.80 299.55 L 325.80 413.15 L 365.00 413.15 Z" fill="#f9a431" fill-rule="nonzero" group-id="14" node-id="221" stroke-linecap="butt" stroke-width="8" target-height="113.59985" target-width="39.200195" target-x="325.7998" target-y="299.55005"></path></g><g node-id="352"><path d="M 365.00 552.35 L 365.00 536.35 L 325.80 536.35 L 325.80 552.35 L 365.00 552.35 Z" fill="#f9a431" fill-rule="nonzero" group-id="15" node-id="226" stroke-linecap="butt" stroke-width="8" target-height="16" target-width="39.200195" target-x="325.7998" target-y="536.3501"></path></g><g node-id="353"><path d="M 530.60 190.35 L 526.22 193.53 L 523.40 198.35 L 522.50 204.28 L 523.80 209.95 L 757.40 709.55 L 760.93 714.28 L 765.80 717.15 L 771.33 718.05 L 776.60 716.75 L 899.00 659.55 L 903.73 656.02 L 906.60 651.15 L 907.40 645.59 L 905.80 639.95 L 672.60 140.35 L 669.07 135.62 L 664.20 132.75 L 658.33 131.65 L 653.00 133.15 L 530.60 190.35 Z" fill="#ffc23a" fill-rule="nonzero" group-id="16" node-id="231" stroke-linecap="butt" stroke-width="8" target-height="586.39624" target-width="384.90186" target-x="522.501" target-y="131.65259"></path></g><g node-id="354"><path d="M 557.80 178.75 L 531.00 191.15 L 526.62 194.33 L 523.80 199.15 L 522.90 205.08 L 524.20 210.75 L 757.80 710.35 L 761.33 715.08 L 766.20 717.95 L 771.72 719.05 L 777.00 717.55 L 803.80 705.15 L 557.80 178.75 Z" fill="#f9a431" fill-rule="nonzero" group-id="17" node-id="236" stroke-linecap="butt" stroke-width="8" target-height="540.2991" target-width="280.89893" target-x="522.9009" target-y="178.75"></path></g><g node-id="355"><path d="M 889.80 605.15 L 881.00 586.75 L 732.60 656.35 L 741.00 674.75 L 889.80 605.15 Z" fill="#63a343" fill-rule="nonzero" group-id="18" node-id="241" stroke-linecap="butt" stroke-width="8" target-height="88" target-width="157.19995" target-x="732.59985" target-y="586.75"></path></g><g node-id="356"><path d="M 875.40 574.35 L 866.60 555.95 L 718.20 625.55 L 726.60 643.95 L 875.40 574.35 Z" fill="#63a343" fill-rule="nonzero" group-id="19" node-id="246" stroke-linecap="butt" stroke-width="8" target-height="88" target-width="157.19995" target-x="718.19995" target-y="555.94995"></path></g><g node-id="357"><path d="M 848.20 515.95 L 839.40 497.55 L 691.00 567.15 L 699.40 585.55 L 848.20 515.95 Z" fill="#63a343" fill-rule="nonzero" group-id="20" node-id="251" stroke-linecap="butt" stroke-width="8" target-height="88" target-width="157.19995" target-x="691" target-y="497.55005"></path></g><g node-id="358"><path d="M 819.00 454.35 L 810.60 435.95 L 662.20 505.55 L 670.60 523.95 L 819.00 454.35 Z" fill="#63a343" fill-rule="nonzero" group-id="21" node-id="256" stroke-linecap="butt" stroke-width="8" target-height="88" target-width="156.80005" target-x="662.19995" target-y="435.94995"></path></g><g node-id="359"><path d="M 592.20 240.75 L 589.57 252.99 L 590.23 264.86 L 594.20 276.75 L 600.73 287.28 L 609.41 295.19 L 620.60 300.75 L 632.86 303.61 L 644.58 303.07 L 656.20 299.15 L 666.76 292.64 L 674.81 283.94 L 680.60 272.75 L 683.22 260.77 L 682.58 249.04 L 678.60 237.15 L 672.11 226.56 L 663.54 218.52 L 652.60 212.75 L 640.34 210.08 L 628.47 210.61 L 616.60 214.35 L 605.99 221.08 L 597.96 229.79 L 592.20 240.75 Z" fill="#22b1b6" fill-rule="nonzero" group-id="22" node-id="261" stroke-linecap="butt" stroke-width="8" target-height="93.53003" target-width="93.651855" target-x="589.5725" target-y="210.07642"></path></g><g node-id="360"><path d="M 325.80 149.55 L 324.80 143.94 L 321.80 139.15 L 316.98 135.84 L 311.40 134.75 L 176.20 134.75 L 170.69 135.85 L 166.20 139.15 L 162.89 143.98 L 161.80 149.55 L 161.80 701.15 L 162.89 706.73 L 166.20 711.55 L 170.69 714.85 L 176.20 715.95 L 311.40 715.95 L 316.98 714.86 L 321.80 711.55 L 324.80 706.76 L 325.80 701.15 L 325.80 149.55 Z" fill="#61313e" fill-rule="nonzero" group-id="23" node-id="266" stroke-linecap="butt" stroke-width="8" target-height="581.19995" target-width="164" target-x="161.7998" target-y="134.75"></path></g><g node-id="361"><path d="M 325.80 149.55 L 324.80 143.94 L 321.80 139.15 L 316.98 135.84 L 311.40 134.75 L 176.20 134.75 L 170.69 135.85 L 166.20 139.15 L 162.89 143.98 L 161.80 149.55 L 161.80 701.15 L 162.89 706.73 L 166.20 711.55 L 170.69 714.85 L 176.20 715.95 L 311.40 715.95 L 316.98 714.86 L 321.80 711.55 L 324.80 706.76 L 325.80 701.15 L 325.80 149.55 Z" fill="#63a343" fill-rule="nonzero" group-id="24" node-id="271" stroke-linecap="butt" stroke-width="8" target-height="581.19995" target-width="164" target-x="161.7998" target-y="134.75"></path></g><g node-id="362"><path d="M 205.80 135.95 L 176.20 135.95 L 170.69 137.05 L 166.20 140.35 L 162.92 144.90 L 161.80 150.75 L 161.80 701.95 L 162.92 707.80 L 166.20 712.35 L 170.69 715.65 L 176.20 716.75 L 205.80 716.75 L 205.80 135.95 Z" fill="#4f823c" fill-rule="nonzero" group-id="25" node-id="276" stroke-linecap="butt" stroke-width="8" target-height="580.80005" target-width="44" target-x="161.7998" target-y="135.94995"></path></g><g node-id="363"><path d="M 325.80 619.15 L 325.80 597.55 L 161.80 597.55 L 161.80 619.15 L 325.80 619.15 Z" fill="#ea5645" fill-rule="nonzero" group-id="26" node-id="281" stroke-linecap="butt" stroke-width="8" target-height="21.599854" target-width="164" target-x="161.7998" target-y="597.55005"></path></g><g node-id="364"><path d="M 325.80 653.15 L 325.80 631.55 L 161.80 631.55 L 161.80 653.15 L 325.80 653.15 Z" fill="#ea5645" fill-rule="nonzero" group-id="27" node-id="286" stroke-linecap="butt" stroke-width="8" target-height="21.599854" target-width="164" target-x="161.7998" target-y="631.55005"></path></g><g node-id="365"><path d="M 205.80 618.75 L 205.80 597.55 L 161.80 597.55 L 161.80 618.75 L 205.80 618.75 Z" fill="#d13431" fill-rule="nonzero" group-id="28" node-id="291" stroke-linecap="butt" stroke-width="8" target-height="21.199951" target-width="44" target-x="161.7998" target-y="597.55005"></path></g><g node-id="366"><path d="M 205.80 653.15 L 205.80 631.55 L 161.80 631.55 L 161.80 653.15 L 205.80 653.15 Z" fill="#d13431" fill-rule="nonzero" group-id="29" node-id="296" stroke-linecap="butt" stroke-width="8" target-height="21.599854" target-width="44" target-x="161.7998" target-y="631.55005"></path></g><g node-id="367"><path d="M 325.80 357.55 L 325.80 186.35 L 161.80 186.35 L 161.80 357.55 L 325.80 357.55 Z" fill="#ea5645" fill-rule="nonzero" group-id="30" node-id="301" stroke-linecap="butt" stroke-width="8" target-height="171.19995" target-width="164" target-x="161.7998" target-y="186.3501"></path></g><g node-id="368"><path d="M 205.80 357.55 L 205.80 186.35 L 161.80 186.35 L 161.80 357.55 L 205.80 357.55 Z" fill="#d13431" fill-rule="nonzero" group-id="31" node-id="306" stroke-linecap="butt" stroke-width="8" target-height="171.19995" target-width="44" target-x="161.7998" target-y="186.3501"></path></g><g node-id="369"><path d="M 325.80 315.55 L 325.80 239.55 L 161.80 239.55 L 161.80 315.55 L 325.80 315.55 Z" fill="#ffc23a" fill-rule="nonzero" group-id="32" node-id="311" stroke-linecap="butt" stroke-width="8" target-height="76" target-width="164" target-x="161.7998" target-y="239.55005"></path></g><g node-id="370"><path d="M 205.80 315.95 L 205.80 239.55 L 161.80 239.55 L 161.80 315.95 L 205.80 315.95 Z" fill="#f9a431" fill-rule="nonzero" group-id="33" node-id="316" stroke-linecap="butt" stroke-width="8" target-height="76.3999" target-width="44" target-x="161.7998" target-y="239.55005"></path></g><g node-id="371"><path d="M 575.40 383.55 L 575.40 361.95 L 450.60 361.95 L 450.60 383.55 L 575.40 383.55 Z" fill="#ea5645" fill-rule="nonzero" group-id="34" node-id="321" stroke-linecap="butt" stroke-width="8" target-height="21.600098" target-width="124.80005" target-x="450.59985" target-y="361.94995"></path></g><g node-id="372"><path d="M 575.40 417.55 L 575.40 395.95 L 450.60 395.95 L 450.60 417.55 L 575.40 417.55 Z" fill="#ea5645" fill-rule="nonzero" group-id="35" node-id="326" stroke-linecap="butt" stroke-width="8" target-height="21.600098" target-width="124.80005" target-x="450.59985" target-y="395.94995"></path></g><g node-id="373"><path d="M 473.80 383.55 L 473.80 361.95 L 450.60 361.95 L 450.60 383.55 L 473.80 383.55 Z" fill="#d13431" fill-rule="nonzero" group-id="36" node-id="331" stroke-linecap="butt" stroke-width="8" target-height="21.600098" target-width="23.199951" target-x="450.59985" target-y="361.94995"></path></g><path d="M 473.80 417.55 L 473.80 395.95 L 450.60 395.95 L 450.60 417.55 L 473.80 417.55 Z" fill="#d13431" fill-rule="nonzero" group-id="37" node-id="336" stroke-linecap="butt" stroke-width="8" target-height="21.600098" target-width="23.199951" target-x="450.59985" target-y="395.94995"></path></svg>